<svg width="17" height="17" viewBox="0 0 17 17" fill="none" xmlns="http://www.w3.org/2000/svg">
<g clip-path="url(#clip0_6_44)">
<path d="M11.4606 8.38191L11.5514 8.48333L11.4606 8.58475C11.451 8.5955 11.4386 8.60661 11.4227 8.61722L11.4227 8.61718L11.4169 8.62118L2.58352 14.6878L2.57241 14.6955L2.56173 14.7037C2.53213 14.7265 2.50866 14.7322 2.49126 14.7333C2.47145 14.7345 2.4472 14.7301 2.42178 14.7167C2.36979 14.6891 2.33325 14.6359 2.33325 14.5667V2.43333C2.33325 2.36413 2.36979 2.31093 2.42178 2.28334C2.4472 2.26985 2.47145 2.26551 2.49126 2.26674C2.50866 2.26783 2.53213 2.27354 2.56173 2.29631L2.57292 2.30492L2.58458 2.31288L11.4179 8.34622L11.4179 8.34624L11.4227 8.34944C11.4386 8.36006 11.451 8.37117 11.4606 8.38191ZM12.3333 8.04853V7.60936V2.16667C12.3333 2.07614 12.4094 2 12.4999 2H14.4999C14.5904 2 14.6666 2.07614 14.6666 2.16667V14.8333C14.6666 14.9239 14.5904 15 14.4999 15H12.4999C12.4094 15 12.3333 14.9239 12.3333 14.8333V9.3573V8.91813V8.04853Z" fill="#FCFCFC" stroke="#FCFCFC"/>
</g>
<defs>
<clipPath id="clip0_6_44">
<rect width="16" height="16" fill="white" transform="translate(0.5 0.5)"/>
</clipPath>
</defs>
</svg>
