<svg width="383" height="382" viewBox="0 0 383 382" fill="none" xmlns="http://www.w3.org/2000/svg">
<path d="M243.867 120.832C247.771 128.641 250.079 137.516 250.079 146.923C249.901 178.339 225.23 204.075 193.992 204.963C192.749 204.785 191.152 204.785 189.732 204.963C158.494 203.898 133.645 178.339 133.645 146.923C133.645 114.797 159.559 88.7061 191.862 88.7061" stroke="#fff" stroke-width="26.6236" stroke-linecap="round" stroke-linejoin="round"/>
<path d="M311.301 322.108C279.707 351.039 237.82 368.611 191.672 368.611C145.524 368.611 103.636 351.039 72.043 322.108C73.8179 305.424 84.4673 289.095 103.459 276.315C152.091 244.012 231.608 244.012 279.885 276.315C298.876 289.095 309.526 305.424 311.301 322.108Z" stroke="#fff" stroke-width="26.6236" stroke-linecap="round" stroke-linejoin="round"/>
<path d="M49.6837 84.6241C27.4973 114.265 14.1855 151.183 14.1855 191.118C14.1855 289.093 93.7013 368.609 191.676 368.609C289.651 368.609 369.167 289.093 369.167 191.118C369.167 93.1437 289.651 13.6279 191.676 13.6279C166.295 13.6279 141.979 18.9526 120.147 28.7146" stroke="#fff" stroke-width="26.6236" stroke-linecap="round" stroke-linejoin="round"/>
</svg>
