<svg width="17" height="17" viewBox="0 0 17 17" fill="none" xmlns="http://www.w3.org/2000/svg">
<g clip-path="url(#clip0_6_42)">
<path d="M4.66659 9.35662V14.8333C4.66659 14.9239 4.59044 15 4.49992 15H2.49992C2.40939 15 2.33325 14.9239 2.33325 14.8333V2.16667C2.33325 2.07614 2.40939 2 2.49992 2H4.49992C4.59044 2 4.66659 2.07614 4.66659 2.16667V7.61005V8.04853V8.91813V9.35662ZM5.5391 8.58462L5.44842 8.48333L5.53911 8.38204C5.54887 8.37114 5.56129 8.36001 5.57717 8.34943L5.57719 8.34945L5.58193 8.34622L14.4153 2.31288L14.4269 2.30492L14.4381 2.29631C14.4677 2.27354 14.4912 2.26783 14.5086 2.26674C14.5284 2.26551 14.5526 2.26985 14.5781 2.28334C14.6301 2.31093 14.6666 2.36413 14.6666 2.43333V14.5667C14.6666 14.6359 14.6301 14.6891 14.5781 14.7167C14.5526 14.7301 14.5284 14.7345 14.5086 14.7333C14.4912 14.7322 14.4677 14.7265 14.4381 14.7037L14.4274 14.6955L14.4163 14.6878L5.58298 8.62118L5.58301 8.62114L5.57717 8.61724C5.56129 8.60666 5.54887 8.59553 5.5391 8.58462Z" fill="#FCFCFC" stroke="#FCFCFC"/>
</g>
<defs>
<clipPath id="clip0_6_42">
<rect width="16" height="16" fill="white" transform="translate(0.5 0.5)"/>
</clipPath>
</defs>
</svg>
