<svg width="24" height="24" viewBox="0 0 24 24" fill="none" xmlns="http://www.w3.org/2000/svg">
<g clip-path="url(#clip0_11_77)">
<path d="M3.45005 12.7C1.50005 10.6 1.50005 7.19999 3.45005 5.09999C4.45005 4 5.70005 3.5 7.00005 3.5C8.00006 3.5 9.05004 3.85 9.90005 4.49999C10.25 4.79999 10.5501 5.15 10.8501 5.5L12.0501 7.1L13.25 5.5C13.55 5.09999 13.85 4.75 14.2001 4.49999C15 3.8 16.0001 3.5 17.0501 3.5C18.3 3.5 19.6001 4 20.55 5.09999C22.5 7.19999 22.5 10.6 20.55 12.7L12.7001 20.7C12.35 21.1001 11.7 21.1001 11.3501 20.7L3.45005 12.7Z" fill="#FF0000" stroke="#FF0000" stroke-width="2" stroke-miterlimit="10" stroke-linecap="round" stroke-linejoin="round"/>
</g>
<defs>
<clipPath id="clip0_11_77">
<rect width="24" height="24" fill="white"/>
</clipPath>
</defs>
</svg>
