<svg width="32" height="32" viewBox="0 0 32 32" fill="none" xmlns="http://www.w3.org/2000/svg">
<path d="M20.1208 0.811185C19.163 1.98281 19.1896 2.56863 20.2006 2.67514C20.7859 2.75502 21.185 2.542 21.9033 1.79642C22.4088 1.26386 22.8079 0.811185 22.7547 0.757929C22.7015 0.704673 22.2492 0.49165 21.7969 0.251998C20.919 -0.147421 20.919 -0.147421 20.1208 0.811185Z" fill="url(#paint0_linear_102_280)" fill-opacity="0.8"/>
<path d="M8.25616 1.55664C4.21218 3.82002 1.36543 7.86746 0.27462 12.9268C-0.76298 17.7464 1.2058 23.7643 5.06355 27.5721C6.34059 28.8503 9.24055 30.5545 11.2093 31.2202C14.0295 32.1521 17.9404 32.2586 20.6009 31.4864C23.4743 30.6343 25.8156 29.2763 27.8642 27.2526C29.4605 25.6549 31.2962 23.0188 31.2962 22.2732C31.2962 22.0868 30.5513 22.14 29.0082 22.4063C27.1724 22.7258 26.2412 22.7525 24.166 22.5128C21.8514 22.2732 21.5055 22.2732 20.9202 22.6992C20.2817 23.1519 18.9514 23.6046 17.3285 23.8708C16.2111 24.0839 13.2313 23.5247 12.2735 22.9389C11.1029 22.2465 9.61303 20.5956 8.89469 19.2376C8.38919 18.2524 8.28277 17.6399 8.28277 15.6428C8.28277 13.4593 8.36258 13.1132 9.10753 11.7818C9.87908 10.3439 9.90568 10.264 9.61303 8.58641L9.32037 6.8556L7.99011 8.24025C6.60664 9.67816 6.10115 9.89118 5.54244 9.332C4.79749 8.58641 5.19657 7.68106 7.11214 5.87037C8.14974 4.85851 9.10753 4.05967 9.21395 4.05967C9.34697 4.05967 9.50661 3.55374 9.61303 2.91467C9.71945 2.30223 9.90568 1.58327 10.0387 1.34362C10.4644 0.571409 9.90568 0.624666 8.25616 1.55664Z" fill="url(#paint1_linear_102_280)" fill-opacity="0.8"/>
<path d="M24.4322 3.74005L23.8203 4.21935L24.9909 5.3111C25.6561 5.92354 26.534 6.85552 26.9863 7.38807L27.7579 8.34668L28.3432 7.62773C29.2212 6.50935 29.0881 5.41761 27.8909 4.24598C26.7469 3.12761 25.4698 2.94121 24.4322 3.74005Z" fill="url(#paint2_linear_102_280)" fill-opacity="0.8"/>
<path d="M18.2598 6.16334C18.2598 7.57462 18.4992 7.89415 19.8029 8.18706C20.6276 8.34683 20.6542 8.34683 20.3882 7.6545C20.2552 7.28171 20.1221 6.56276 20.1221 6.05683C20.1221 5.15148 19.7763 4.85857 18.7653 4.85857C18.3396 4.85857 18.2598 5.04496 18.2598 6.16334Z" fill="url(#paint3_linear_102_280)" fill-opacity="0.8"/>
<path d="M30.0464 10.3439C29.0886 11.2758 29.0088 11.6753 29.5675 12.4208C29.9133 12.9001 29.9666 12.9001 30.7115 12.3676C31.9619 11.4622 32.228 11.0628 31.8289 10.5835C31.6427 10.3705 31.5895 10.1841 31.6959 10.1841C31.8023 10.1841 31.7491 9.9977 31.5629 9.78468C31.1372 9.27875 31.0574 9.30538 30.0464 10.3439Z" fill="url(#paint4_linear_102_280)" fill-opacity="0.8"/>
<path d="M14.4551 10.2905C12.646 10.9562 11.7946 11.8882 11.2093 13.832C10.6772 15.6161 10.7038 16.7345 11.3157 18.0659C12.5661 20.8086 15.4661 22.0068 18.3927 20.995C19.8826 20.4624 21.0798 19.344 21.7183 17.8262C23.5807 13.5391 18.845 8.6396 14.4551 10.2905ZM18.5257 13.6723C19.1908 14.3113 19.3238 14.6575 19.3238 15.6694C19.3238 16.7079 19.1908 17.0274 18.4193 17.7996C17.7009 18.5186 17.3019 18.705 16.4239 18.705C14.2955 18.705 13.4707 17.8529 13.4707 15.6427C13.4707 14.2048 14.2689 13.1663 15.5991 12.8734C16.9028 12.6072 17.5945 12.7936 18.5257 13.6723Z" fill="url(#paint5_linear_102_280)" fill-opacity="0.8"/>
<path d="M23.582 11.6754C23.582 11.7552 23.8215 12.2878 24.1141 12.847C24.6196 13.8589 24.7261 13.9121 25.8435 13.9121C27.1737 13.9121 27.3068 13.779 27.1205 12.7671C27.0407 12.3144 26.7746 11.9949 26.4022 11.9416C25.3646 11.7286 23.582 11.5689 23.582 11.6754Z" fill="url(#paint6_linear_102_280)" fill-opacity="0.8"/>
<defs>
<linearGradient id="paint0_linear_102_280" x1="19.4219" y1="0.252358" x2="22.7773" y2="2.83949" gradientUnits="userSpaceOnUse">
<stop stop-color="#FF537F"/>
<stop offset="1" stop-color="#00B3FD"/>
</linearGradient>
<linearGradient id="paint1_linear_102_280" x1="-3.98825e-07" y1="3.73147" x2="36.1191" y2="26.2578" gradientUnits="userSpaceOnUse">
<stop stop-color="#FF537F"/>
<stop offset="1" stop-color="#00B3FD"/>
</linearGradient>
<linearGradient id="paint2_linear_102_280" x1="23.8203" y1="3.72841" x2="29.7097" y2="7.38526" gradientUnits="userSpaceOnUse">
<stop stop-color="#FF537F"/>
<stop offset="1" stop-color="#00B3FD"/>
</linearGradient>
<linearGradient id="paint3_linear_102_280" x1="18.2598" y1="5.17876" x2="21.3763" y2="6.4712" gradientUnits="userSpaceOnUse">
<stop stop-color="#FF537F"/>
<stop offset="1" stop-color="#00B3FD"/>
</linearGradient>
<linearGradient id="paint4_linear_102_280" x1="29.2187" y1="9.77417" x2="32.7221" y2="11.6044" gradientUnits="userSpaceOnUse">
<stop stop-color="#FF537F"/>
<stop offset="1" stop-color="#00B3FD"/>
</linearGradient>
<linearGradient id="paint5_linear_102_280" x1="10.832" y1="11.0301" x2="23.9555" y2="19.1262" gradientUnits="userSpaceOnUse">
<stop stop-color="#FF537F"/>
<stop offset="1" stop-color="#00B3FD"/>
</linearGradient>
<linearGradient id="paint6_linear_102_280" x1="23.582" y1="11.8543" x2="26.5096" y2="14.7441" gradientUnits="userSpaceOnUse">
<stop stop-color="#FF537F"/>
<stop offset="1" stop-color="#00B3FD"/>
</linearGradient>
</defs>
</svg>
